<?xml version="1.0" encoding="iso-8859-1"?>
<!-- Generator: Adobe Illustrator 19.0.0, SVG Export Plug-In . SVG Version: 6.00 Build 0)  -->
<svg xmlns="http://www.w3.org/2000/svg" xmlns:xlink="http://www.w3.org/1999/xlink" version="1.1" id="Layer_1" x="0px" y="0px" viewBox="0 0 512 512" style="enable-background:new 0 0 512 512;" xml:space="preserve" width="512" height="512">
<g id="XMLID_2545_">
	<g id="XMLID_2537_">
		<g id="XMLID_2538_">
			<path id="XMLID_2544_" d="M223.259,375.389H49.592c-5.522,0-10,4.478-10,10s4.478,10,10,10h173.667     c16.542,0,29.999,13.458,29.999,30s-13.458,30-30,30s-30-13.458-30-30c0-5.522-4.478-10-10-10s-10,4.478-10,10     c0,27.57,22.431,50,50.001,50c27.569,0,49.999-22.43,49.999-50S250.828,375.389,223.259,375.389z"/>
			<path id="XMLID_2543_" d="M383.888,375.389H287c-5.522,0-10,4.478-10,10s4.478,10,10,10h96.888c16.542,0,30,13.458,30,30     s-13.458,30-30,30s-30-13.458-30-30c0-5.522-4.478-10-10-10s-10,4.478-10,10c0,27.57,22.43,50,50,50s50-22.43,50-50     S411.458,375.389,383.888,375.389z"/>
			<path id="XMLID_2542_" d="M493.015,216.198c-9.909-12.21-23.07-21.455-37.762-26.666c1.628-8.208,2.45-16.586,2.45-25.014     c0-70.528-57.379-127.907-127.907-127.907c-31.816,0-62.312,11.758-85.868,33.109c-19.29,17.484-32.657,40.204-38.583,65.171     c-18.342-9.755-40.462-10.696-59.962-1.815c-22.121,10.074-36.741,30.803-39.326,54.185c-6.804-1.731-13.806-2.604-20.94-2.604     C38.183,184.657,0,222.84,0,269.773c0,46.933,38.183,85.115,85.116,85.115h72.551c5.522,0,10-4.478,10-10s-4.478-10-10-10H85.116     C49.211,334.889,20,305.678,20,269.773c0-35.905,29.211-65.116,65.116-65.116c9.307,0,18.317,1.94,26.782,5.767     c3.277,1.482,7.098,1.09,10.006-1.028c2.907-2.117,4.454-5.633,4.05-9.207c-2.333-20.643,8.806-40.298,27.718-48.912     c17.477-7.961,37.936-4.732,52.123,8.22c2.785,2.544,6.768,3.305,10.296,1.962c3.527-1.341,6-4.554,6.392-8.307     c5.756-55.038,51.891-96.542,107.313-96.542c59.5,0,107.907,48.407,107.907,107.907c0,9.933-1.351,19.777-4.014,29.259     c-0.743,2.644-0.366,5.477,1.043,7.834c1.408,2.357,3.725,4.031,6.405,4.63c29.472,6.58,50.862,33.299,50.862,63.532     c0,35.904-29.211,65.115-65.116,65.115H404.36c6.292-8.363,10.027-18.753,10.027-30c0-27.57-22.43-50-50-50s-50,22.43-50,50     c0,5.522,4.478,10,10,10s10-4.478,10-10c0-16.542,13.458-30,30-30s30,13.458,30,30s-13.458,30-30,30H237.667     c-5.522,0-10,4.478-10,10s4.478,10,10,10h189.217c46.934,0,85.116-38.183,85.116-85.115     C512,250.311,505.258,231.284,493.015,216.198z"/>
			<path id="XMLID_2541_" d="M330.08,96.612c0.016,0,0.03,0,0.046,0c5.502,0,9.975-4.448,9.999-9.956     c0.024-5.522-4.433-10.02-9.955-10.044l-0.374,0c-5.522,0-10,4.477-10,10s4.478,10,10,10L330.08,96.612z"/>
			<path id="XMLID_2540_" d="M397.703,164.519c0,5.523,4.478,10,10,10s10-4.477,10-10c0-31.263-16.821-60.428-43.9-76.114     c-4.78-2.769-10.897-1.138-13.666,3.64c-2.768,4.779-1.138,10.897,3.641,13.666C384.704,117.832,397.703,140.366,397.703,164.519     z"/>
			<path id="XMLID_2539_" d="M204.74,351.96c1.859-1.86,2.93-4.44,2.93-7.07s-1.07-5.21-2.93-7.07c-1.86-1.859-4.44-2.93-7.07-2.93     c-2.64,0-5.21,1.07-7.07,2.93c-1.87,1.86-2.93,4.44-2.93,7.07s1.06,5.21,2.93,7.07c1.86,1.859,4.431,2.93,7.07,2.93     C200.3,354.89,202.88,353.819,204.74,351.96z"/>
		</g>
	</g>
</g>















</svg>
