<?xml version="1.0" standalone="no"?><!-- Generator: Gravit.io --><svg xmlns="http://www.w3.org/2000/svg" xmlns:xlink="http://www.w3.org/1999/xlink" style="isolation:isolate" viewBox="0 0 100 150" width="100" height="150"><defs><clipPath id="_clipPath_faiTCqnlDOMSx7r33ARLuzmmXa8KLn95"><rect width="100" height="150"/></clipPath></defs><g clip-path="url(#_clipPath_faiTCqnlDOMSx7r33ARLuzmmXa8KLn95)"><g><g><g><path d=" M 78.332 33.33 C 70.967 33.33 64.997 39.3 64.997 46.664 C 65.005 54.025 70.97 59.99 78.332 59.999 C 85.696 59.999 91.666 54.029 91.666 46.664 C 91.666 39.3 85.696 33.33 78.332 33.33 Z  M 78.332 56.665 C 72.808 56.665 68.331 52.188 68.331 46.664 C 68.336 41.143 72.81 36.669 78.332 36.663 C 83.855 36.663 88.332 41.141 88.332 46.664 C 88.332 52.188 83.855 56.665 78.332 56.665 Z " fill="rgb(255,255,255)"/></g></g><g><g><rect x="76.665" y="24.996" width="3.334" height="5" transform="matrix(1,0,0,1,0,0)" fill="rgb(255,255,255)"/></g></g><g><g><rect x="76.665" y="63.332" width="3.334" height="5" transform="matrix(1,0,0,1,0,0)" fill="rgb(255,255,255)"/></g></g><g><g><rect x="56.663" y="44.997" width="5" height="3.334" transform="matrix(1,0,0,1,0,0)" fill="rgb(255,255,255)"/></g></g><g><g><rect x="95" y="44.997" width="5" height="3.334" transform="matrix(1,0,0,1,0,0)" fill="rgb(255,255,255)"/></g></g><g><g><rect x="63.109" y="30.61" width="3.334" height="5" transform="matrix(0.707,-0.707,0.707,0.707,-4.44,55.501)" fill="rgb(255,255,255)"/></g></g><g><g><rect x="90.217" y="57.715" width="3.334" height="5" transform="matrix(0.707,-0.707,0.707,0.707,-15.667,82.608)" fill="rgb(255,255,255)"/></g></g><g><g><rect x="62.276" y="58.547" width="5" height="3.334" transform="matrix(0.707,-0.707,0.707,0.707,-23.605,63.44)" fill="rgb(255,255,255)"/></g></g><g><g><rect x="89.385" y="31.443" width="5" height="3.334" transform="matrix(0.707,-0.707,0.707,0.707,3.5,74.671)" fill="rgb(255,255,255)"/></g></g><g><g><path d=" M 89.796 122.539 L 49.792 49.2 C 49.5 48.664 48.939 48.331 48.329 48.331 L 1.658 48.331 C 1.533 48.334 1.409 48.35 1.287 48.379 C 1.273 48.379 1.26 48.379 1.247 48.379 C 1.084 48.423 0.93 48.492 0.788 48.583 C 0.747 48.61 0.707 48.641 0.668 48.673 C 0.531 48.777 0.409 48.901 0.308 49.041 C 0.285 49.076 0.253 49.105 0.232 49.141 C 0.196 49.209 0.166 49.279 0.142 49.351 C 0.12 49.395 0.1 49.439 0.083 49.485 C 0.03 49.646 0.002 49.815 0 49.985 L 0 61.666 C 0 61.942 0.069 62.215 0.2 62.459 L 33.528 124.131 C 33.819 124.669 34.382 125.005 34.995 125.004 L 88.332 125.004 C 89.253 125.004 89.999 124.258 89.999 123.338 C 90 123.059 89.93 122.784 89.796 122.539 Z  M 75.523 103.336 L 64.32 103.336 L 56.138 88.334 L 67.341 88.334 L 75.523 103.336 Z  M 35.52 85.001 L 22.65 85.001 L 14.468 70 L 27.337 70 L 35.52 85.001 Z  M 31.136 70 L 42.339 70 L 50.521 85.001 L 39.318 85.001 L 31.136 70 Z  M 37.338 88.334 L 45.52 103.336 L 32.651 103.336 L 24.469 88.334 L 37.338 88.334 Z  M 41.137 88.334 L 52.339 88.334 L 60.522 103.336 L 49.319 103.336 L 41.137 88.334 Z  M 65.522 85.001 L 54.32 85.001 L 46.137 70 L 57.34 70 L 65.522 85.001 Z  M 47.339 51.665 L 55.521 66.666 L 44.319 66.666 L 36.136 51.665 L 47.339 51.665 Z  M 32.338 51.665 L 40.52 66.666 L 29.317 66.666 L 21.135 51.665 L 32.338 51.665 Z  M 17.336 51.665 L 25.519 66.666 L 12.649 66.666 L 4.467 51.665 L 17.336 51.665 Z  M 35.995 121.671 L 3.325 61.244 L 3.325 56.535 L 38.853 121.671 L 35.995 121.671 Z  M 42.652 121.671 L 34.47 106.669 L 47.339 106.669 L 55.521 121.671 L 42.652 121.671 Z  M 59.32 121.671 L 51.138 106.669 L 62.34 106.669 L 70.523 121.671 L 59.32 121.671 Z  M 74.321 121.671 L 66.139 106.669 L 77.341 106.669 L 85.524 121.671 L 74.321 121.671 Z " fill="rgb(255,255,255)"/></g></g></g></g></svg>